%TF.GenerationSoftware,KiCad,Pcbnew,7.0.10*%
%TF.CreationDate,2024-04-17T19:02:49+01:00*%
%TF.ProjectId,ds_led_cart,64735f6c-6564-45f6-9361-72742e6b6963,rev?*%
%TF.SameCoordinates,Original*%
%TF.FileFunction,Drillmap*%
%TF.FilePolarity,Positive*%
%FSLAX45Y45*%
G04 Gerber Fmt 4.5, Leading zero omitted, Abs format (unit mm)*
G04 Created by KiCad (PCBNEW 7.0.10) date 2024-04-17 19:02:49*
%MOMM*%
%LPD*%
G01*
G04 APERTURE LIST*
%ADD10C,0.100000*%
%ADD11C,0.200000*%
G04 APERTURE END LIST*
D10*
X17152500Y-7995000D02*
X17152500Y-7895000D01*
X17192500Y-7995000D02*
X17155000Y-7995000D01*
X17355000Y-7595000D02*
X17152500Y-7595000D01*
X17370000Y-7600000D02*
X17370000Y-6000000D01*
X17152500Y-7695000D02*
X17152500Y-7595000D01*
X19892500Y-7600000D02*
X19690000Y-7600000D01*
X19690000Y-7600000D02*
X19690000Y-6000000D01*
X17152500Y-7895000D02*
G75*
G03*
X17152500Y-7695000I0J100000D01*
G01*
X17192500Y-7995000D02*
X17192500Y-9045000D01*
X17370000Y-6000000D02*
X19690000Y-6000000D01*
X19895000Y-9045000D02*
X19892500Y-7900000D01*
X19895000Y-7700000D02*
X19895000Y-7600000D01*
X19895000Y-9045000D02*
X17192500Y-9045000D01*
X19892500Y-7700000D02*
G75*
G03*
X19892500Y-7900000I0J-100000D01*
G01*
D11*
X17408277Y-9361484D02*
X17408277Y-9161484D01*
X17408277Y-9161484D02*
X17455896Y-9161484D01*
X17455896Y-9161484D02*
X17484467Y-9171008D01*
X17484467Y-9171008D02*
X17503515Y-9190055D01*
X17503515Y-9190055D02*
X17513039Y-9209103D01*
X17513039Y-9209103D02*
X17522563Y-9247198D01*
X17522563Y-9247198D02*
X17522563Y-9275770D01*
X17522563Y-9275770D02*
X17513039Y-9313865D01*
X17513039Y-9313865D02*
X17503515Y-9332912D01*
X17503515Y-9332912D02*
X17484467Y-9351960D01*
X17484467Y-9351960D02*
X17455896Y-9361484D01*
X17455896Y-9361484D02*
X17408277Y-9361484D01*
X17608277Y-9361484D02*
X17608277Y-9228150D01*
X17608277Y-9266246D02*
X17617801Y-9247198D01*
X17617801Y-9247198D02*
X17627324Y-9237674D01*
X17627324Y-9237674D02*
X17646372Y-9228150D01*
X17646372Y-9228150D02*
X17665420Y-9228150D01*
X17732086Y-9361484D02*
X17732086Y-9228150D01*
X17732086Y-9161484D02*
X17722563Y-9171008D01*
X17722563Y-9171008D02*
X17732086Y-9180531D01*
X17732086Y-9180531D02*
X17741610Y-9171008D01*
X17741610Y-9171008D02*
X17732086Y-9161484D01*
X17732086Y-9161484D02*
X17732086Y-9180531D01*
X17855896Y-9361484D02*
X17836848Y-9351960D01*
X17836848Y-9351960D02*
X17827324Y-9332912D01*
X17827324Y-9332912D02*
X17827324Y-9161484D01*
X17960658Y-9361484D02*
X17941610Y-9351960D01*
X17941610Y-9351960D02*
X17932086Y-9332912D01*
X17932086Y-9332912D02*
X17932086Y-9161484D01*
X18189229Y-9361484D02*
X18189229Y-9161484D01*
X18189229Y-9161484D02*
X18255896Y-9304341D01*
X18255896Y-9304341D02*
X18322563Y-9161484D01*
X18322563Y-9161484D02*
X18322563Y-9361484D01*
X18503515Y-9361484D02*
X18503515Y-9256722D01*
X18503515Y-9256722D02*
X18493991Y-9237674D01*
X18493991Y-9237674D02*
X18474944Y-9228150D01*
X18474944Y-9228150D02*
X18436848Y-9228150D01*
X18436848Y-9228150D02*
X18417801Y-9237674D01*
X18503515Y-9351960D02*
X18484467Y-9361484D01*
X18484467Y-9361484D02*
X18436848Y-9361484D01*
X18436848Y-9361484D02*
X18417801Y-9351960D01*
X18417801Y-9351960D02*
X18408277Y-9332912D01*
X18408277Y-9332912D02*
X18408277Y-9313865D01*
X18408277Y-9313865D02*
X18417801Y-9294817D01*
X18417801Y-9294817D02*
X18436848Y-9285293D01*
X18436848Y-9285293D02*
X18484467Y-9285293D01*
X18484467Y-9285293D02*
X18503515Y-9275770D01*
X18598753Y-9228150D02*
X18598753Y-9428150D01*
X18598753Y-9237674D02*
X18617801Y-9228150D01*
X18617801Y-9228150D02*
X18655896Y-9228150D01*
X18655896Y-9228150D02*
X18674944Y-9237674D01*
X18674944Y-9237674D02*
X18684467Y-9247198D01*
X18684467Y-9247198D02*
X18693991Y-9266246D01*
X18693991Y-9266246D02*
X18693991Y-9323389D01*
X18693991Y-9323389D02*
X18684467Y-9342436D01*
X18684467Y-9342436D02*
X18674944Y-9351960D01*
X18674944Y-9351960D02*
X18655896Y-9361484D01*
X18655896Y-9361484D02*
X18617801Y-9361484D01*
X18617801Y-9361484D02*
X18598753Y-9351960D01*
X18779705Y-9342436D02*
X18789229Y-9351960D01*
X18789229Y-9351960D02*
X18779705Y-9361484D01*
X18779705Y-9361484D02*
X18770182Y-9351960D01*
X18770182Y-9351960D02*
X18779705Y-9342436D01*
X18779705Y-9342436D02*
X18779705Y-9361484D01*
X18779705Y-9237674D02*
X18789229Y-9247198D01*
X18789229Y-9247198D02*
X18779705Y-9256722D01*
X18779705Y-9256722D02*
X18770182Y-9247198D01*
X18770182Y-9247198D02*
X18779705Y-9237674D01*
X18779705Y-9237674D02*
X18779705Y-9256722D01*
M02*
