%TF.GenerationSoftware,KiCad,Pcbnew,7.0.10*%
%TF.CreationDate,2024-04-17T19:12:29+01:00*%
%TF.ProjectId,ds_led_cart,64735f6c-6564-45f6-9361-72742e6b6963,rev?*%
%TF.SameCoordinates,Original*%
%TF.FileFunction,Legend,Top*%
%TF.FilePolarity,Positive*%
%FSLAX46Y46*%
G04 Gerber Fmt 4.6, Leading zero omitted, Abs format (unit mm)*
G04 Created by KiCad (PCBNEW 7.0.10) date 2024-04-17 19:12:29*
%MOMM*%
%LPD*%
G01*
G04 APERTURE LIST*
%ADD10C,0.150000*%
%ADD11C,0.120000*%
%ADD12C,0.100000*%
G04 APERTURE END LIST*
D10*
X123908094Y-90576009D02*
X123574761Y-90576009D01*
X123574761Y-91099819D02*
X123574761Y-90099819D01*
X123574761Y-90099819D02*
X124050951Y-90099819D01*
X124860475Y-91099819D02*
X124860475Y-90576009D01*
X124860475Y-90576009D02*
X124812856Y-90480771D01*
X124812856Y-90480771D02*
X124717618Y-90433152D01*
X124717618Y-90433152D02*
X124527142Y-90433152D01*
X124527142Y-90433152D02*
X124431904Y-90480771D01*
X124860475Y-91052200D02*
X124765237Y-91099819D01*
X124765237Y-91099819D02*
X124527142Y-91099819D01*
X124527142Y-91099819D02*
X124431904Y-91052200D01*
X124431904Y-91052200D02*
X124384285Y-90956961D01*
X124384285Y-90956961D02*
X124384285Y-90861723D01*
X124384285Y-90861723D02*
X124431904Y-90766485D01*
X124431904Y-90766485D02*
X124527142Y-90718866D01*
X124527142Y-90718866D02*
X124765237Y-90718866D01*
X124765237Y-90718866D02*
X124860475Y-90671247D01*
X125765237Y-91052200D02*
X125669999Y-91099819D01*
X125669999Y-91099819D02*
X125479523Y-91099819D01*
X125479523Y-91099819D02*
X125384285Y-91052200D01*
X125384285Y-91052200D02*
X125336666Y-91004580D01*
X125336666Y-91004580D02*
X125289047Y-90909342D01*
X125289047Y-90909342D02*
X125289047Y-90623628D01*
X125289047Y-90623628D02*
X125336666Y-90528390D01*
X125336666Y-90528390D02*
X125384285Y-90480771D01*
X125384285Y-90480771D02*
X125479523Y-90433152D01*
X125479523Y-90433152D02*
X125669999Y-90433152D01*
X125669999Y-90433152D02*
X125765237Y-90480771D01*
X126574761Y-91052200D02*
X126479523Y-91099819D01*
X126479523Y-91099819D02*
X126289047Y-91099819D01*
X126289047Y-91099819D02*
X126193809Y-91052200D01*
X126193809Y-91052200D02*
X126146190Y-90956961D01*
X126146190Y-90956961D02*
X126146190Y-90576009D01*
X126146190Y-90576009D02*
X126193809Y-90480771D01*
X126193809Y-90480771D02*
X126289047Y-90433152D01*
X126289047Y-90433152D02*
X126479523Y-90433152D01*
X126479523Y-90433152D02*
X126574761Y-90480771D01*
X126574761Y-90480771D02*
X126622380Y-90576009D01*
X126622380Y-90576009D02*
X126622380Y-90671247D01*
X126622380Y-90671247D02*
X126146190Y-90766485D01*
X127193809Y-91099819D02*
X127098571Y-91052200D01*
X127098571Y-91052200D02*
X127050952Y-90956961D01*
X127050952Y-90956961D02*
X127050952Y-90099819D01*
X127955714Y-91052200D02*
X127860476Y-91099819D01*
X127860476Y-91099819D02*
X127670000Y-91099819D01*
X127670000Y-91099819D02*
X127574762Y-91052200D01*
X127574762Y-91052200D02*
X127527143Y-90956961D01*
X127527143Y-90956961D02*
X127527143Y-90576009D01*
X127527143Y-90576009D02*
X127574762Y-90480771D01*
X127574762Y-90480771D02*
X127670000Y-90433152D01*
X127670000Y-90433152D02*
X127860476Y-90433152D01*
X127860476Y-90433152D02*
X127955714Y-90480771D01*
X127955714Y-90480771D02*
X128003333Y-90576009D01*
X128003333Y-90576009D02*
X128003333Y-90671247D01*
X128003333Y-90671247D02*
X127527143Y-90766485D01*
X128384286Y-91052200D02*
X128479524Y-91099819D01*
X128479524Y-91099819D02*
X128670000Y-91099819D01*
X128670000Y-91099819D02*
X128765238Y-91052200D01*
X128765238Y-91052200D02*
X128812857Y-90956961D01*
X128812857Y-90956961D02*
X128812857Y-90909342D01*
X128812857Y-90909342D02*
X128765238Y-90814104D01*
X128765238Y-90814104D02*
X128670000Y-90766485D01*
X128670000Y-90766485D02*
X128527143Y-90766485D01*
X128527143Y-90766485D02*
X128431905Y-90718866D01*
X128431905Y-90718866D02*
X128384286Y-90623628D01*
X128384286Y-90623628D02*
X128384286Y-90576009D01*
X128384286Y-90576009D02*
X128431905Y-90480771D01*
X128431905Y-90480771D02*
X128527143Y-90433152D01*
X128527143Y-90433152D02*
X128670000Y-90433152D01*
X128670000Y-90433152D02*
X128765238Y-90480771D01*
X129193810Y-91052200D02*
X129289048Y-91099819D01*
X129289048Y-91099819D02*
X129479524Y-91099819D01*
X129479524Y-91099819D02*
X129574762Y-91052200D01*
X129574762Y-91052200D02*
X129622381Y-90956961D01*
X129622381Y-90956961D02*
X129622381Y-90909342D01*
X129622381Y-90909342D02*
X129574762Y-90814104D01*
X129574762Y-90814104D02*
X129479524Y-90766485D01*
X129479524Y-90766485D02*
X129336667Y-90766485D01*
X129336667Y-90766485D02*
X129241429Y-90718866D01*
X129241429Y-90718866D02*
X129193810Y-90623628D01*
X129193810Y-90623628D02*
X129193810Y-90576009D01*
X129193810Y-90576009D02*
X129241429Y-90480771D01*
X129241429Y-90480771D02*
X129336667Y-90433152D01*
X129336667Y-90433152D02*
X129479524Y-90433152D01*
X129479524Y-90433152D02*
X129574762Y-90480771D01*
X129908096Y-90433152D02*
X130289048Y-90433152D01*
X130050953Y-90099819D02*
X130050953Y-90956961D01*
X130050953Y-90956961D02*
X130098572Y-91052200D01*
X130098572Y-91052200D02*
X130193810Y-91099819D01*
X130193810Y-91099819D02*
X130289048Y-91099819D01*
X131003334Y-91052200D02*
X130908096Y-91099819D01*
X130908096Y-91099819D02*
X130717620Y-91099819D01*
X130717620Y-91099819D02*
X130622382Y-91052200D01*
X130622382Y-91052200D02*
X130574763Y-90956961D01*
X130574763Y-90956961D02*
X130574763Y-90576009D01*
X130574763Y-90576009D02*
X130622382Y-90480771D01*
X130622382Y-90480771D02*
X130717620Y-90433152D01*
X130717620Y-90433152D02*
X130908096Y-90433152D01*
X130908096Y-90433152D02*
X131003334Y-90480771D01*
X131003334Y-90480771D02*
X131050953Y-90576009D01*
X131050953Y-90576009D02*
X131050953Y-90671247D01*
X131050953Y-90671247D02*
X130574763Y-90766485D01*
X131908096Y-91052200D02*
X131812858Y-91099819D01*
X131812858Y-91099819D02*
X131622382Y-91099819D01*
X131622382Y-91099819D02*
X131527144Y-91052200D01*
X131527144Y-91052200D02*
X131479525Y-91004580D01*
X131479525Y-91004580D02*
X131431906Y-90909342D01*
X131431906Y-90909342D02*
X131431906Y-90623628D01*
X131431906Y-90623628D02*
X131479525Y-90528390D01*
X131479525Y-90528390D02*
X131527144Y-90480771D01*
X131527144Y-90480771D02*
X131622382Y-90433152D01*
X131622382Y-90433152D02*
X131812858Y-90433152D01*
X131812858Y-90433152D02*
X131908096Y-90480771D01*
X132336668Y-91099819D02*
X132336668Y-90099819D01*
X132765239Y-91099819D02*
X132765239Y-90576009D01*
X132765239Y-90576009D02*
X132717620Y-90480771D01*
X132717620Y-90480771D02*
X132622382Y-90433152D01*
X132622382Y-90433152D02*
X132479525Y-90433152D01*
X132479525Y-90433152D02*
X132384287Y-90480771D01*
X132384287Y-90480771D02*
X132336668Y-90528390D01*
X126455714Y-91805057D02*
X126503333Y-91757438D01*
X126503333Y-91757438D02*
X126598571Y-91709819D01*
X126598571Y-91709819D02*
X126836666Y-91709819D01*
X126836666Y-91709819D02*
X126931904Y-91757438D01*
X126931904Y-91757438D02*
X126979523Y-91805057D01*
X126979523Y-91805057D02*
X127027142Y-91900295D01*
X127027142Y-91900295D02*
X127027142Y-91995533D01*
X127027142Y-91995533D02*
X126979523Y-92138390D01*
X126979523Y-92138390D02*
X126408095Y-92709819D01*
X126408095Y-92709819D02*
X127027142Y-92709819D01*
X127646190Y-91709819D02*
X127741428Y-91709819D01*
X127741428Y-91709819D02*
X127836666Y-91757438D01*
X127836666Y-91757438D02*
X127884285Y-91805057D01*
X127884285Y-91805057D02*
X127931904Y-91900295D01*
X127931904Y-91900295D02*
X127979523Y-92090771D01*
X127979523Y-92090771D02*
X127979523Y-92328866D01*
X127979523Y-92328866D02*
X127931904Y-92519342D01*
X127931904Y-92519342D02*
X127884285Y-92614580D01*
X127884285Y-92614580D02*
X127836666Y-92662200D01*
X127836666Y-92662200D02*
X127741428Y-92709819D01*
X127741428Y-92709819D02*
X127646190Y-92709819D01*
X127646190Y-92709819D02*
X127550952Y-92662200D01*
X127550952Y-92662200D02*
X127503333Y-92614580D01*
X127503333Y-92614580D02*
X127455714Y-92519342D01*
X127455714Y-92519342D02*
X127408095Y-92328866D01*
X127408095Y-92328866D02*
X127408095Y-92090771D01*
X127408095Y-92090771D02*
X127455714Y-91900295D01*
X127455714Y-91900295D02*
X127503333Y-91805057D01*
X127503333Y-91805057D02*
X127550952Y-91757438D01*
X127550952Y-91757438D02*
X127646190Y-91709819D01*
X128360476Y-91805057D02*
X128408095Y-91757438D01*
X128408095Y-91757438D02*
X128503333Y-91709819D01*
X128503333Y-91709819D02*
X128741428Y-91709819D01*
X128741428Y-91709819D02*
X128836666Y-91757438D01*
X128836666Y-91757438D02*
X128884285Y-91805057D01*
X128884285Y-91805057D02*
X128931904Y-91900295D01*
X128931904Y-91900295D02*
X128931904Y-91995533D01*
X128931904Y-91995533D02*
X128884285Y-92138390D01*
X128884285Y-92138390D02*
X128312857Y-92709819D01*
X128312857Y-92709819D02*
X128931904Y-92709819D01*
X129789047Y-92043152D02*
X129789047Y-92709819D01*
X129550952Y-91662200D02*
X129312857Y-92376485D01*
X129312857Y-92376485D02*
X129931904Y-92376485D01*
X136890237Y-91384819D02*
X136890237Y-90384819D01*
X136890237Y-90384819D02*
X137128332Y-90384819D01*
X137128332Y-90384819D02*
X137271189Y-90432438D01*
X137271189Y-90432438D02*
X137366427Y-90527676D01*
X137366427Y-90527676D02*
X137414046Y-90622914D01*
X137414046Y-90622914D02*
X137461665Y-90813390D01*
X137461665Y-90813390D02*
X137461665Y-90956247D01*
X137461665Y-90956247D02*
X137414046Y-91146723D01*
X137414046Y-91146723D02*
X137366427Y-91241961D01*
X137366427Y-91241961D02*
X137271189Y-91337200D01*
X137271189Y-91337200D02*
X137128332Y-91384819D01*
X137128332Y-91384819D02*
X136890237Y-91384819D01*
X137842618Y-91337200D02*
X137985475Y-91384819D01*
X137985475Y-91384819D02*
X138223570Y-91384819D01*
X138223570Y-91384819D02*
X138318808Y-91337200D01*
X138318808Y-91337200D02*
X138366427Y-91289580D01*
X138366427Y-91289580D02*
X138414046Y-91194342D01*
X138414046Y-91194342D02*
X138414046Y-91099104D01*
X138414046Y-91099104D02*
X138366427Y-91003866D01*
X138366427Y-91003866D02*
X138318808Y-90956247D01*
X138318808Y-90956247D02*
X138223570Y-90908628D01*
X138223570Y-90908628D02*
X138033094Y-90861009D01*
X138033094Y-90861009D02*
X137937856Y-90813390D01*
X137937856Y-90813390D02*
X137890237Y-90765771D01*
X137890237Y-90765771D02*
X137842618Y-90670533D01*
X137842618Y-90670533D02*
X137842618Y-90575295D01*
X137842618Y-90575295D02*
X137890237Y-90480057D01*
X137890237Y-90480057D02*
X137937856Y-90432438D01*
X137937856Y-90432438D02*
X138033094Y-90384819D01*
X138033094Y-90384819D02*
X138271189Y-90384819D01*
X138271189Y-90384819D02*
X138414046Y-90432438D01*
X138604523Y-91480057D02*
X139366427Y-91480057D01*
X140080713Y-91384819D02*
X139604523Y-91384819D01*
X139604523Y-91384819D02*
X139604523Y-90384819D01*
X140414047Y-90861009D02*
X140747380Y-90861009D01*
X140890237Y-91384819D02*
X140414047Y-91384819D01*
X140414047Y-91384819D02*
X140414047Y-90384819D01*
X140414047Y-90384819D02*
X140890237Y-90384819D01*
X141318809Y-91384819D02*
X141318809Y-90384819D01*
X141318809Y-90384819D02*
X141556904Y-90384819D01*
X141556904Y-90384819D02*
X141699761Y-90432438D01*
X141699761Y-90432438D02*
X141794999Y-90527676D01*
X141794999Y-90527676D02*
X141842618Y-90622914D01*
X141842618Y-90622914D02*
X141890237Y-90813390D01*
X141890237Y-90813390D02*
X141890237Y-90956247D01*
X141890237Y-90956247D02*
X141842618Y-91146723D01*
X141842618Y-91146723D02*
X141794999Y-91241961D01*
X141794999Y-91241961D02*
X141699761Y-91337200D01*
X141699761Y-91337200D02*
X141556904Y-91384819D01*
X141556904Y-91384819D02*
X141318809Y-91384819D01*
X142080714Y-91480057D02*
X142842618Y-91480057D01*
X143652142Y-91289580D02*
X143604523Y-91337200D01*
X143604523Y-91337200D02*
X143461666Y-91384819D01*
X143461666Y-91384819D02*
X143366428Y-91384819D01*
X143366428Y-91384819D02*
X143223571Y-91337200D01*
X143223571Y-91337200D02*
X143128333Y-91241961D01*
X143128333Y-91241961D02*
X143080714Y-91146723D01*
X143080714Y-91146723D02*
X143033095Y-90956247D01*
X143033095Y-90956247D02*
X143033095Y-90813390D01*
X143033095Y-90813390D02*
X143080714Y-90622914D01*
X143080714Y-90622914D02*
X143128333Y-90527676D01*
X143128333Y-90527676D02*
X143223571Y-90432438D01*
X143223571Y-90432438D02*
X143366428Y-90384819D01*
X143366428Y-90384819D02*
X143461666Y-90384819D01*
X143461666Y-90384819D02*
X143604523Y-90432438D01*
X143604523Y-90432438D02*
X143652142Y-90480057D01*
X144509285Y-91384819D02*
X144509285Y-90861009D01*
X144509285Y-90861009D02*
X144461666Y-90765771D01*
X144461666Y-90765771D02*
X144366428Y-90718152D01*
X144366428Y-90718152D02*
X144175952Y-90718152D01*
X144175952Y-90718152D02*
X144080714Y-90765771D01*
X144509285Y-91337200D02*
X144414047Y-91384819D01*
X144414047Y-91384819D02*
X144175952Y-91384819D01*
X144175952Y-91384819D02*
X144080714Y-91337200D01*
X144080714Y-91337200D02*
X144033095Y-91241961D01*
X144033095Y-91241961D02*
X144033095Y-91146723D01*
X144033095Y-91146723D02*
X144080714Y-91051485D01*
X144080714Y-91051485D02*
X144175952Y-91003866D01*
X144175952Y-91003866D02*
X144414047Y-91003866D01*
X144414047Y-91003866D02*
X144509285Y-90956247D01*
X144985476Y-91384819D02*
X144985476Y-90718152D01*
X144985476Y-90908628D02*
X145033095Y-90813390D01*
X145033095Y-90813390D02*
X145080714Y-90765771D01*
X145080714Y-90765771D02*
X145175952Y-90718152D01*
X145175952Y-90718152D02*
X145271190Y-90718152D01*
X145461667Y-90718152D02*
X145842619Y-90718152D01*
X145604524Y-90384819D02*
X145604524Y-91241961D01*
X145604524Y-91241961D02*
X145652143Y-91337200D01*
X145652143Y-91337200D02*
X145747381Y-91384819D01*
X145747381Y-91384819D02*
X145842619Y-91384819D01*
X125381905Y-98739819D02*
X125381905Y-97739819D01*
X125381905Y-97739819D02*
X125620000Y-97739819D01*
X125620000Y-97739819D02*
X125762857Y-97787438D01*
X125762857Y-97787438D02*
X125858095Y-97882676D01*
X125858095Y-97882676D02*
X125905714Y-97977914D01*
X125905714Y-97977914D02*
X125953333Y-98168390D01*
X125953333Y-98168390D02*
X125953333Y-98311247D01*
X125953333Y-98311247D02*
X125905714Y-98501723D01*
X125905714Y-98501723D02*
X125858095Y-98596961D01*
X125858095Y-98596961D02*
X125762857Y-98692200D01*
X125762857Y-98692200D02*
X125620000Y-98739819D01*
X125620000Y-98739819D02*
X125381905Y-98739819D01*
X126286667Y-97739819D02*
X126905714Y-97739819D01*
X126905714Y-97739819D02*
X126572381Y-98120771D01*
X126572381Y-98120771D02*
X126715238Y-98120771D01*
X126715238Y-98120771D02*
X126810476Y-98168390D01*
X126810476Y-98168390D02*
X126858095Y-98216009D01*
X126858095Y-98216009D02*
X126905714Y-98311247D01*
X126905714Y-98311247D02*
X126905714Y-98549342D01*
X126905714Y-98549342D02*
X126858095Y-98644580D01*
X126858095Y-98644580D02*
X126810476Y-98692200D01*
X126810476Y-98692200D02*
X126715238Y-98739819D01*
X126715238Y-98739819D02*
X126429524Y-98739819D01*
X126429524Y-98739819D02*
X126334286Y-98692200D01*
X126334286Y-98692200D02*
X126286667Y-98644580D01*
X142806905Y-101599819D02*
X142806905Y-100599819D01*
X142806905Y-100599819D02*
X143045000Y-100599819D01*
X143045000Y-100599819D02*
X143187857Y-100647438D01*
X143187857Y-100647438D02*
X143283095Y-100742676D01*
X143283095Y-100742676D02*
X143330714Y-100837914D01*
X143330714Y-100837914D02*
X143378333Y-101028390D01*
X143378333Y-101028390D02*
X143378333Y-101171247D01*
X143378333Y-101171247D02*
X143330714Y-101361723D01*
X143330714Y-101361723D02*
X143283095Y-101456961D01*
X143283095Y-101456961D02*
X143187857Y-101552200D01*
X143187857Y-101552200D02*
X143045000Y-101599819D01*
X143045000Y-101599819D02*
X142806905Y-101599819D01*
X144235476Y-100933152D02*
X144235476Y-101599819D01*
X143997381Y-100552200D02*
X143759286Y-101266485D01*
X143759286Y-101266485D02*
X144378333Y-101266485D01*
X142806905Y-96599819D02*
X142806905Y-95599819D01*
X142806905Y-95599819D02*
X143045000Y-95599819D01*
X143045000Y-95599819D02*
X143187857Y-95647438D01*
X143187857Y-95647438D02*
X143283095Y-95742676D01*
X143283095Y-95742676D02*
X143330714Y-95837914D01*
X143330714Y-95837914D02*
X143378333Y-96028390D01*
X143378333Y-96028390D02*
X143378333Y-96171247D01*
X143378333Y-96171247D02*
X143330714Y-96361723D01*
X143330714Y-96361723D02*
X143283095Y-96456961D01*
X143283095Y-96456961D02*
X143187857Y-96552200D01*
X143187857Y-96552200D02*
X143045000Y-96599819D01*
X143045000Y-96599819D02*
X142806905Y-96599819D01*
X143759286Y-95695057D02*
X143806905Y-95647438D01*
X143806905Y-95647438D02*
X143902143Y-95599819D01*
X143902143Y-95599819D02*
X144140238Y-95599819D01*
X144140238Y-95599819D02*
X144235476Y-95647438D01*
X144235476Y-95647438D02*
X144283095Y-95695057D01*
X144283095Y-95695057D02*
X144330714Y-95790295D01*
X144330714Y-95790295D02*
X144330714Y-95885533D01*
X144330714Y-95885533D02*
X144283095Y-96028390D01*
X144283095Y-96028390D02*
X143711667Y-96599819D01*
X143711667Y-96599819D02*
X144330714Y-96599819D01*
X128731905Y-95219819D02*
X128731905Y-94219819D01*
X128731905Y-94219819D02*
X128970000Y-94219819D01*
X128970000Y-94219819D02*
X129112857Y-94267438D01*
X129112857Y-94267438D02*
X129208095Y-94362676D01*
X129208095Y-94362676D02*
X129255714Y-94457914D01*
X129255714Y-94457914D02*
X129303333Y-94648390D01*
X129303333Y-94648390D02*
X129303333Y-94791247D01*
X129303333Y-94791247D02*
X129255714Y-94981723D01*
X129255714Y-94981723D02*
X129208095Y-95076961D01*
X129208095Y-95076961D02*
X129112857Y-95172200D01*
X129112857Y-95172200D02*
X128970000Y-95219819D01*
X128970000Y-95219819D02*
X128731905Y-95219819D01*
X130255714Y-95219819D02*
X129684286Y-95219819D01*
X129970000Y-95219819D02*
X129970000Y-94219819D01*
X129970000Y-94219819D02*
X129874762Y-94362676D01*
X129874762Y-94362676D02*
X129779524Y-94457914D01*
X129779524Y-94457914D02*
X129684286Y-94505533D01*
X134106905Y-93739819D02*
X134106905Y-92739819D01*
X134106905Y-92739819D02*
X134345000Y-92739819D01*
X134345000Y-92739819D02*
X134487857Y-92787438D01*
X134487857Y-92787438D02*
X134583095Y-92882676D01*
X134583095Y-92882676D02*
X134630714Y-92977914D01*
X134630714Y-92977914D02*
X134678333Y-93168390D01*
X134678333Y-93168390D02*
X134678333Y-93311247D01*
X134678333Y-93311247D02*
X134630714Y-93501723D01*
X134630714Y-93501723D02*
X134583095Y-93596961D01*
X134583095Y-93596961D02*
X134487857Y-93692200D01*
X134487857Y-93692200D02*
X134345000Y-93739819D01*
X134345000Y-93739819D02*
X134106905Y-93739819D01*
X135583095Y-92739819D02*
X135106905Y-92739819D01*
X135106905Y-92739819D02*
X135059286Y-93216009D01*
X135059286Y-93216009D02*
X135106905Y-93168390D01*
X135106905Y-93168390D02*
X135202143Y-93120771D01*
X135202143Y-93120771D02*
X135440238Y-93120771D01*
X135440238Y-93120771D02*
X135535476Y-93168390D01*
X135535476Y-93168390D02*
X135583095Y-93216009D01*
X135583095Y-93216009D02*
X135630714Y-93311247D01*
X135630714Y-93311247D02*
X135630714Y-93549342D01*
X135630714Y-93549342D02*
X135583095Y-93644580D01*
X135583095Y-93644580D02*
X135535476Y-93692200D01*
X135535476Y-93692200D02*
X135440238Y-93739819D01*
X135440238Y-93739819D02*
X135202143Y-93739819D01*
X135202143Y-93739819D02*
X135106905Y-93692200D01*
X135106905Y-93692200D02*
X135059286Y-93644580D01*
X134106905Y-98739819D02*
X134106905Y-97739819D01*
X134106905Y-97739819D02*
X134345000Y-97739819D01*
X134345000Y-97739819D02*
X134487857Y-97787438D01*
X134487857Y-97787438D02*
X134583095Y-97882676D01*
X134583095Y-97882676D02*
X134630714Y-97977914D01*
X134630714Y-97977914D02*
X134678333Y-98168390D01*
X134678333Y-98168390D02*
X134678333Y-98311247D01*
X134678333Y-98311247D02*
X134630714Y-98501723D01*
X134630714Y-98501723D02*
X134583095Y-98596961D01*
X134583095Y-98596961D02*
X134487857Y-98692200D01*
X134487857Y-98692200D02*
X134345000Y-98739819D01*
X134345000Y-98739819D02*
X134106905Y-98739819D01*
X135535476Y-97739819D02*
X135345000Y-97739819D01*
X135345000Y-97739819D02*
X135249762Y-97787438D01*
X135249762Y-97787438D02*
X135202143Y-97835057D01*
X135202143Y-97835057D02*
X135106905Y-97977914D01*
X135106905Y-97977914D02*
X135059286Y-98168390D01*
X135059286Y-98168390D02*
X135059286Y-98549342D01*
X135059286Y-98549342D02*
X135106905Y-98644580D01*
X135106905Y-98644580D02*
X135154524Y-98692200D01*
X135154524Y-98692200D02*
X135249762Y-98739819D01*
X135249762Y-98739819D02*
X135440238Y-98739819D01*
X135440238Y-98739819D02*
X135535476Y-98692200D01*
X135535476Y-98692200D02*
X135583095Y-98644580D01*
X135583095Y-98644580D02*
X135630714Y-98549342D01*
X135630714Y-98549342D02*
X135630714Y-98311247D01*
X135630714Y-98311247D02*
X135583095Y-98216009D01*
X135583095Y-98216009D02*
X135535476Y-98168390D01*
X135535476Y-98168390D02*
X135440238Y-98120771D01*
X135440238Y-98120771D02*
X135249762Y-98120771D01*
X135249762Y-98120771D02*
X135154524Y-98168390D01*
X135154524Y-98168390D02*
X135106905Y-98216009D01*
X135106905Y-98216009D02*
X135059286Y-98311247D01*
D11*
%TO.C,D3*%
X124460000Y-98980000D02*
X124460000Y-100450000D01*
X124460000Y-100450000D02*
X126920000Y-100450000D01*
X126920000Y-98980000D02*
X124460000Y-98980000D01*
%TO.C,D4*%
X145205000Y-100450000D02*
X145205000Y-98980000D01*
X145205000Y-98980000D02*
X142745000Y-98980000D01*
X142745000Y-100450000D02*
X145205000Y-100450000D01*
%TO.C,D2*%
X145205000Y-95450000D02*
X145205000Y-93980000D01*
X145205000Y-93980000D02*
X142745000Y-93980000D01*
X142745000Y-95450000D02*
X145205000Y-95450000D01*
%TO.C,D1*%
X124460000Y-93980000D02*
X124460000Y-95450000D01*
X124460000Y-95450000D02*
X126920000Y-95450000D01*
X126920000Y-93980000D02*
X124460000Y-93980000D01*
%TO.C,D5*%
X133185000Y-93980000D02*
X133185000Y-95450000D01*
X133185000Y-95450000D02*
X135645000Y-95450000D01*
X135645000Y-93980000D02*
X133185000Y-93980000D01*
D12*
%TO.C,U1*%
X121795000Y-120182500D02*
X146895000Y-120182500D01*
D11*
%TO.C,D6*%
X133185000Y-98980000D02*
X133185000Y-100450000D01*
X133185000Y-100450000D02*
X135645000Y-100450000D01*
X135645000Y-98980000D02*
X133185000Y-98980000D01*
%TD*%
M02*
