%TF.GenerationSoftware,KiCad,Pcbnew,7.0.10*%
%TF.CreationDate,2024-04-17T19:12:29+01:00*%
%TF.ProjectId,ds_led_cart,64735f6c-6564-45f6-9361-72742e6b6963,rev?*%
%TF.SameCoordinates,Original*%
%TF.FileFunction,Legend,Bot*%
%TF.FilePolarity,Positive*%
%FSLAX46Y46*%
G04 Gerber Fmt 4.6, Leading zero omitted, Abs format (unit mm)*
G04 Created by KiCad (PCBNEW 7.0.10) date 2024-04-17 19:12:29*
%MOMM*%
%LPD*%
G01*
G04 APERTURE LIST*
%ADD10C,0.150000*%
G04 APERTURE END LIST*
D10*
X132406905Y-90651009D02*
X132740238Y-90651009D01*
X132740238Y-91174819D02*
X132740238Y-90174819D01*
X132740238Y-90174819D02*
X132264048Y-90174819D01*
X131454524Y-91174819D02*
X131454524Y-90651009D01*
X131454524Y-90651009D02*
X131502143Y-90555771D01*
X131502143Y-90555771D02*
X131597381Y-90508152D01*
X131597381Y-90508152D02*
X131787857Y-90508152D01*
X131787857Y-90508152D02*
X131883095Y-90555771D01*
X131454524Y-91127200D02*
X131549762Y-91174819D01*
X131549762Y-91174819D02*
X131787857Y-91174819D01*
X131787857Y-91174819D02*
X131883095Y-91127200D01*
X131883095Y-91127200D02*
X131930714Y-91031961D01*
X131930714Y-91031961D02*
X131930714Y-90936723D01*
X131930714Y-90936723D02*
X131883095Y-90841485D01*
X131883095Y-90841485D02*
X131787857Y-90793866D01*
X131787857Y-90793866D02*
X131549762Y-90793866D01*
X131549762Y-90793866D02*
X131454524Y-90746247D01*
X130549762Y-91127200D02*
X130645000Y-91174819D01*
X130645000Y-91174819D02*
X130835476Y-91174819D01*
X130835476Y-91174819D02*
X130930714Y-91127200D01*
X130930714Y-91127200D02*
X130978333Y-91079580D01*
X130978333Y-91079580D02*
X131025952Y-90984342D01*
X131025952Y-90984342D02*
X131025952Y-90698628D01*
X131025952Y-90698628D02*
X130978333Y-90603390D01*
X130978333Y-90603390D02*
X130930714Y-90555771D01*
X130930714Y-90555771D02*
X130835476Y-90508152D01*
X130835476Y-90508152D02*
X130645000Y-90508152D01*
X130645000Y-90508152D02*
X130549762Y-90555771D01*
X129740238Y-91127200D02*
X129835476Y-91174819D01*
X129835476Y-91174819D02*
X130025952Y-91174819D01*
X130025952Y-91174819D02*
X130121190Y-91127200D01*
X130121190Y-91127200D02*
X130168809Y-91031961D01*
X130168809Y-91031961D02*
X130168809Y-90651009D01*
X130168809Y-90651009D02*
X130121190Y-90555771D01*
X130121190Y-90555771D02*
X130025952Y-90508152D01*
X130025952Y-90508152D02*
X129835476Y-90508152D01*
X129835476Y-90508152D02*
X129740238Y-90555771D01*
X129740238Y-90555771D02*
X129692619Y-90651009D01*
X129692619Y-90651009D02*
X129692619Y-90746247D01*
X129692619Y-90746247D02*
X130168809Y-90841485D01*
X129121190Y-91174819D02*
X129216428Y-91127200D01*
X129216428Y-91127200D02*
X129264047Y-91031961D01*
X129264047Y-91031961D02*
X129264047Y-90174819D01*
X128359285Y-91127200D02*
X128454523Y-91174819D01*
X128454523Y-91174819D02*
X128644999Y-91174819D01*
X128644999Y-91174819D02*
X128740237Y-91127200D01*
X128740237Y-91127200D02*
X128787856Y-91031961D01*
X128787856Y-91031961D02*
X128787856Y-90651009D01*
X128787856Y-90651009D02*
X128740237Y-90555771D01*
X128740237Y-90555771D02*
X128644999Y-90508152D01*
X128644999Y-90508152D02*
X128454523Y-90508152D01*
X128454523Y-90508152D02*
X128359285Y-90555771D01*
X128359285Y-90555771D02*
X128311666Y-90651009D01*
X128311666Y-90651009D02*
X128311666Y-90746247D01*
X128311666Y-90746247D02*
X128787856Y-90841485D01*
X127930713Y-91127200D02*
X127835475Y-91174819D01*
X127835475Y-91174819D02*
X127644999Y-91174819D01*
X127644999Y-91174819D02*
X127549761Y-91127200D01*
X127549761Y-91127200D02*
X127502142Y-91031961D01*
X127502142Y-91031961D02*
X127502142Y-90984342D01*
X127502142Y-90984342D02*
X127549761Y-90889104D01*
X127549761Y-90889104D02*
X127644999Y-90841485D01*
X127644999Y-90841485D02*
X127787856Y-90841485D01*
X127787856Y-90841485D02*
X127883094Y-90793866D01*
X127883094Y-90793866D02*
X127930713Y-90698628D01*
X127930713Y-90698628D02*
X127930713Y-90651009D01*
X127930713Y-90651009D02*
X127883094Y-90555771D01*
X127883094Y-90555771D02*
X127787856Y-90508152D01*
X127787856Y-90508152D02*
X127644999Y-90508152D01*
X127644999Y-90508152D02*
X127549761Y-90555771D01*
X127121189Y-91127200D02*
X127025951Y-91174819D01*
X127025951Y-91174819D02*
X126835475Y-91174819D01*
X126835475Y-91174819D02*
X126740237Y-91127200D01*
X126740237Y-91127200D02*
X126692618Y-91031961D01*
X126692618Y-91031961D02*
X126692618Y-90984342D01*
X126692618Y-90984342D02*
X126740237Y-90889104D01*
X126740237Y-90889104D02*
X126835475Y-90841485D01*
X126835475Y-90841485D02*
X126978332Y-90841485D01*
X126978332Y-90841485D02*
X127073570Y-90793866D01*
X127073570Y-90793866D02*
X127121189Y-90698628D01*
X127121189Y-90698628D02*
X127121189Y-90651009D01*
X127121189Y-90651009D02*
X127073570Y-90555771D01*
X127073570Y-90555771D02*
X126978332Y-90508152D01*
X126978332Y-90508152D02*
X126835475Y-90508152D01*
X126835475Y-90508152D02*
X126740237Y-90555771D01*
X126406903Y-90508152D02*
X126025951Y-90508152D01*
X126264046Y-90174819D02*
X126264046Y-91031961D01*
X126264046Y-91031961D02*
X126216427Y-91127200D01*
X126216427Y-91127200D02*
X126121189Y-91174819D01*
X126121189Y-91174819D02*
X126025951Y-91174819D01*
X125311665Y-91127200D02*
X125406903Y-91174819D01*
X125406903Y-91174819D02*
X125597379Y-91174819D01*
X125597379Y-91174819D02*
X125692617Y-91127200D01*
X125692617Y-91127200D02*
X125740236Y-91031961D01*
X125740236Y-91031961D02*
X125740236Y-90651009D01*
X125740236Y-90651009D02*
X125692617Y-90555771D01*
X125692617Y-90555771D02*
X125597379Y-90508152D01*
X125597379Y-90508152D02*
X125406903Y-90508152D01*
X125406903Y-90508152D02*
X125311665Y-90555771D01*
X125311665Y-90555771D02*
X125264046Y-90651009D01*
X125264046Y-90651009D02*
X125264046Y-90746247D01*
X125264046Y-90746247D02*
X125740236Y-90841485D01*
X124406903Y-91127200D02*
X124502141Y-91174819D01*
X124502141Y-91174819D02*
X124692617Y-91174819D01*
X124692617Y-91174819D02*
X124787855Y-91127200D01*
X124787855Y-91127200D02*
X124835474Y-91079580D01*
X124835474Y-91079580D02*
X124883093Y-90984342D01*
X124883093Y-90984342D02*
X124883093Y-90698628D01*
X124883093Y-90698628D02*
X124835474Y-90603390D01*
X124835474Y-90603390D02*
X124787855Y-90555771D01*
X124787855Y-90555771D02*
X124692617Y-90508152D01*
X124692617Y-90508152D02*
X124502141Y-90508152D01*
X124502141Y-90508152D02*
X124406903Y-90555771D01*
X123978331Y-91174819D02*
X123978331Y-90174819D01*
X123549760Y-91174819D02*
X123549760Y-90651009D01*
X123549760Y-90651009D02*
X123597379Y-90555771D01*
X123597379Y-90555771D02*
X123692617Y-90508152D01*
X123692617Y-90508152D02*
X123835474Y-90508152D01*
X123835474Y-90508152D02*
X123930712Y-90555771D01*
X123930712Y-90555771D02*
X123978331Y-90603390D01*
X129859285Y-91880057D02*
X129811666Y-91832438D01*
X129811666Y-91832438D02*
X129716428Y-91784819D01*
X129716428Y-91784819D02*
X129478333Y-91784819D01*
X129478333Y-91784819D02*
X129383095Y-91832438D01*
X129383095Y-91832438D02*
X129335476Y-91880057D01*
X129335476Y-91880057D02*
X129287857Y-91975295D01*
X129287857Y-91975295D02*
X129287857Y-92070533D01*
X129287857Y-92070533D02*
X129335476Y-92213390D01*
X129335476Y-92213390D02*
X129906904Y-92784819D01*
X129906904Y-92784819D02*
X129287857Y-92784819D01*
X128668809Y-91784819D02*
X128573571Y-91784819D01*
X128573571Y-91784819D02*
X128478333Y-91832438D01*
X128478333Y-91832438D02*
X128430714Y-91880057D01*
X128430714Y-91880057D02*
X128383095Y-91975295D01*
X128383095Y-91975295D02*
X128335476Y-92165771D01*
X128335476Y-92165771D02*
X128335476Y-92403866D01*
X128335476Y-92403866D02*
X128383095Y-92594342D01*
X128383095Y-92594342D02*
X128430714Y-92689580D01*
X128430714Y-92689580D02*
X128478333Y-92737200D01*
X128478333Y-92737200D02*
X128573571Y-92784819D01*
X128573571Y-92784819D02*
X128668809Y-92784819D01*
X128668809Y-92784819D02*
X128764047Y-92737200D01*
X128764047Y-92737200D02*
X128811666Y-92689580D01*
X128811666Y-92689580D02*
X128859285Y-92594342D01*
X128859285Y-92594342D02*
X128906904Y-92403866D01*
X128906904Y-92403866D02*
X128906904Y-92165771D01*
X128906904Y-92165771D02*
X128859285Y-91975295D01*
X128859285Y-91975295D02*
X128811666Y-91880057D01*
X128811666Y-91880057D02*
X128764047Y-91832438D01*
X128764047Y-91832438D02*
X128668809Y-91784819D01*
X127954523Y-91880057D02*
X127906904Y-91832438D01*
X127906904Y-91832438D02*
X127811666Y-91784819D01*
X127811666Y-91784819D02*
X127573571Y-91784819D01*
X127573571Y-91784819D02*
X127478333Y-91832438D01*
X127478333Y-91832438D02*
X127430714Y-91880057D01*
X127430714Y-91880057D02*
X127383095Y-91975295D01*
X127383095Y-91975295D02*
X127383095Y-92070533D01*
X127383095Y-92070533D02*
X127430714Y-92213390D01*
X127430714Y-92213390D02*
X128002142Y-92784819D01*
X128002142Y-92784819D02*
X127383095Y-92784819D01*
X126525952Y-92118152D02*
X126525952Y-92784819D01*
X126764047Y-91737200D02*
X127002142Y-92451485D01*
X127002142Y-92451485D02*
X126383095Y-92451485D01*
X145749762Y-91384819D02*
X145749762Y-90384819D01*
X145749762Y-90384819D02*
X145511667Y-90384819D01*
X145511667Y-90384819D02*
X145368810Y-90432438D01*
X145368810Y-90432438D02*
X145273572Y-90527676D01*
X145273572Y-90527676D02*
X145225953Y-90622914D01*
X145225953Y-90622914D02*
X145178334Y-90813390D01*
X145178334Y-90813390D02*
X145178334Y-90956247D01*
X145178334Y-90956247D02*
X145225953Y-91146723D01*
X145225953Y-91146723D02*
X145273572Y-91241961D01*
X145273572Y-91241961D02*
X145368810Y-91337200D01*
X145368810Y-91337200D02*
X145511667Y-91384819D01*
X145511667Y-91384819D02*
X145749762Y-91384819D01*
X144797381Y-91337200D02*
X144654524Y-91384819D01*
X144654524Y-91384819D02*
X144416429Y-91384819D01*
X144416429Y-91384819D02*
X144321191Y-91337200D01*
X144321191Y-91337200D02*
X144273572Y-91289580D01*
X144273572Y-91289580D02*
X144225953Y-91194342D01*
X144225953Y-91194342D02*
X144225953Y-91099104D01*
X144225953Y-91099104D02*
X144273572Y-91003866D01*
X144273572Y-91003866D02*
X144321191Y-90956247D01*
X144321191Y-90956247D02*
X144416429Y-90908628D01*
X144416429Y-90908628D02*
X144606905Y-90861009D01*
X144606905Y-90861009D02*
X144702143Y-90813390D01*
X144702143Y-90813390D02*
X144749762Y-90765771D01*
X144749762Y-90765771D02*
X144797381Y-90670533D01*
X144797381Y-90670533D02*
X144797381Y-90575295D01*
X144797381Y-90575295D02*
X144749762Y-90480057D01*
X144749762Y-90480057D02*
X144702143Y-90432438D01*
X144702143Y-90432438D02*
X144606905Y-90384819D01*
X144606905Y-90384819D02*
X144368810Y-90384819D01*
X144368810Y-90384819D02*
X144225953Y-90432438D01*
X144035477Y-91480057D02*
X143273572Y-91480057D01*
X142559286Y-91384819D02*
X143035476Y-91384819D01*
X143035476Y-91384819D02*
X143035476Y-90384819D01*
X142225952Y-90861009D02*
X141892619Y-90861009D01*
X141749762Y-91384819D02*
X142225952Y-91384819D01*
X142225952Y-91384819D02*
X142225952Y-90384819D01*
X142225952Y-90384819D02*
X141749762Y-90384819D01*
X141321190Y-91384819D02*
X141321190Y-90384819D01*
X141321190Y-90384819D02*
X141083095Y-90384819D01*
X141083095Y-90384819D02*
X140940238Y-90432438D01*
X140940238Y-90432438D02*
X140845000Y-90527676D01*
X140845000Y-90527676D02*
X140797381Y-90622914D01*
X140797381Y-90622914D02*
X140749762Y-90813390D01*
X140749762Y-90813390D02*
X140749762Y-90956247D01*
X140749762Y-90956247D02*
X140797381Y-91146723D01*
X140797381Y-91146723D02*
X140845000Y-91241961D01*
X140845000Y-91241961D02*
X140940238Y-91337200D01*
X140940238Y-91337200D02*
X141083095Y-91384819D01*
X141083095Y-91384819D02*
X141321190Y-91384819D01*
X140559286Y-91480057D02*
X139797381Y-91480057D01*
X138987857Y-91289580D02*
X139035476Y-91337200D01*
X139035476Y-91337200D02*
X139178333Y-91384819D01*
X139178333Y-91384819D02*
X139273571Y-91384819D01*
X139273571Y-91384819D02*
X139416428Y-91337200D01*
X139416428Y-91337200D02*
X139511666Y-91241961D01*
X139511666Y-91241961D02*
X139559285Y-91146723D01*
X139559285Y-91146723D02*
X139606904Y-90956247D01*
X139606904Y-90956247D02*
X139606904Y-90813390D01*
X139606904Y-90813390D02*
X139559285Y-90622914D01*
X139559285Y-90622914D02*
X139511666Y-90527676D01*
X139511666Y-90527676D02*
X139416428Y-90432438D01*
X139416428Y-90432438D02*
X139273571Y-90384819D01*
X139273571Y-90384819D02*
X139178333Y-90384819D01*
X139178333Y-90384819D02*
X139035476Y-90432438D01*
X139035476Y-90432438D02*
X138987857Y-90480057D01*
X138130714Y-91384819D02*
X138130714Y-90861009D01*
X138130714Y-90861009D02*
X138178333Y-90765771D01*
X138178333Y-90765771D02*
X138273571Y-90718152D01*
X138273571Y-90718152D02*
X138464047Y-90718152D01*
X138464047Y-90718152D02*
X138559285Y-90765771D01*
X138130714Y-91337200D02*
X138225952Y-91384819D01*
X138225952Y-91384819D02*
X138464047Y-91384819D01*
X138464047Y-91384819D02*
X138559285Y-91337200D01*
X138559285Y-91337200D02*
X138606904Y-91241961D01*
X138606904Y-91241961D02*
X138606904Y-91146723D01*
X138606904Y-91146723D02*
X138559285Y-91051485D01*
X138559285Y-91051485D02*
X138464047Y-91003866D01*
X138464047Y-91003866D02*
X138225952Y-91003866D01*
X138225952Y-91003866D02*
X138130714Y-90956247D01*
X137654523Y-91384819D02*
X137654523Y-90718152D01*
X137654523Y-90908628D02*
X137606904Y-90813390D01*
X137606904Y-90813390D02*
X137559285Y-90765771D01*
X137559285Y-90765771D02*
X137464047Y-90718152D01*
X137464047Y-90718152D02*
X137368809Y-90718152D01*
X137178332Y-90718152D02*
X136797380Y-90718152D01*
X137035475Y-90384819D02*
X137035475Y-91241961D01*
X137035475Y-91241961D02*
X136987856Y-91337200D01*
X136987856Y-91337200D02*
X136892618Y-91384819D01*
X136892618Y-91384819D02*
X136797380Y-91384819D01*
M02*
