%TF.GenerationSoftware,KiCad,Pcbnew,7.0.10*%
%TF.CreationDate,2024-04-17T19:12:29+01:00*%
%TF.ProjectId,ds_led_cart,64735f6c-6564-45f6-9361-72742e6b6963,rev?*%
%TF.SameCoordinates,Original*%
%TF.FileFunction,Copper,L1,Top*%
%TF.FilePolarity,Positive*%
%FSLAX46Y46*%
G04 Gerber Fmt 4.6, Leading zero omitted, Abs format (unit mm)*
G04 Created by KiCad (PCBNEW 7.0.10) date 2024-04-17 19:12:29*
%MOMM*%
%LPD*%
G01*
G04 APERTURE LIST*
G04 Aperture macros list*
%AMRoundRect*
0 Rectangle with rounded corners*
0 $1 Rounding radius*
0 $2 $3 $4 $5 $6 $7 $8 $9 X,Y pos of 4 corners*
0 Add a 4 corners polygon primitive as box body*
4,1,4,$2,$3,$4,$5,$6,$7,$8,$9,$2,$3,0*
0 Add four circle primitives for the rounded corners*
1,1,$1+$1,$2,$3*
1,1,$1+$1,$4,$5*
1,1,$1+$1,$6,$7*
1,1,$1+$1,$8,$9*
0 Add four rect primitives between the rounded corners*
20,1,$1+$1,$2,$3,$4,$5,0*
20,1,$1+$1,$4,$5,$6,$7,0*
20,1,$1+$1,$6,$7,$8,$9,0*
20,1,$1+$1,$8,$9,$2,$3,0*%
G04 Aperture macros list end*
%TA.AperFunction,SMDPad,CuDef*%
%ADD10RoundRect,0.237500X-0.287500X-0.237500X0.287500X-0.237500X0.287500X0.237500X-0.287500X0.237500X0*%
%TD*%
%TA.AperFunction,SMDPad,CuDef*%
%ADD11RoundRect,0.237500X0.287500X0.237500X-0.287500X0.237500X-0.287500X-0.237500X0.287500X-0.237500X0*%
%TD*%
%TA.AperFunction,SMDPad,CuDef*%
%ADD12RoundRect,0.300000X-0.300000X-2.275000X0.300000X-2.275000X0.300000X2.275000X-0.300000X2.275000X0*%
%TD*%
%TA.AperFunction,SMDPad,CuDef*%
%ADD13RoundRect,0.300000X-0.300000X-1.700000X0.300000X-1.700000X0.300000X1.700000X-0.300000X1.700000X0*%
%TD*%
%TA.AperFunction,SMDPad,CuDef*%
%ADD14RoundRect,0.300000X-0.300000X-2.075000X0.300000X-2.075000X0.300000X2.075000X-0.300000X2.075000X0*%
%TD*%
%TA.AperFunction,Conductor*%
%ADD15C,0.250000*%
%TD*%
G04 APERTURE END LIST*
D10*
%TO.P,D3,1,K*%
%TO.N,Net-(D1-K)*%
X125245000Y-99715000D03*
%TO.P,D3,2,A*%
%TO.N,Net-(D1-A)*%
X126995000Y-99715000D03*
%TD*%
D11*
%TO.P,D4,1,K*%
%TO.N,Net-(D1-K)*%
X144420000Y-99715000D03*
%TO.P,D4,2,A*%
%TO.N,Net-(D1-A)*%
X142670000Y-99715000D03*
%TD*%
%TO.P,D2,1,K*%
%TO.N,Net-(D1-K)*%
X144420000Y-94715000D03*
%TO.P,D2,2,A*%
%TO.N,Net-(D1-A)*%
X142670000Y-94715000D03*
%TD*%
D10*
%TO.P,D1,1,K*%
%TO.N,Net-(D1-K)*%
X125245000Y-94715000D03*
%TO.P,D1,2,A*%
%TO.N,Net-(D1-A)*%
X126995000Y-94715000D03*
%TD*%
%TO.P,D5,1,K*%
%TO.N,Net-(D1-K)*%
X133970000Y-94715000D03*
%TO.P,D5,2,A*%
%TO.N,Net-(D1-A)*%
X135720000Y-94715000D03*
%TD*%
D12*
%TO.P,U1,1,GND*%
%TO.N,Net-(D1-K)*%
X122395000Y-116772500D03*
D13*
%TO.P,U1,2,CLK*%
%TO.N,unconnected-(U1-CLK-Pad2)*%
X123895000Y-116202500D03*
%TO.P,U1,3,?*%
%TO.N,unconnected-(U1-?-Pad3)*%
X125395000Y-116202500D03*
%TO.P,U1,4,CS1*%
%TO.N,unconnected-(U1-CS1-Pad4)*%
X126895000Y-116202500D03*
%TO.P,U1,5,RES*%
%TO.N,unconnected-(U1-RES-Pad5)*%
X128395000Y-116202500D03*
%TO.P,U1,6,CS2*%
%TO.N,unconnected-(U1-CS2-Pad6)*%
X129895000Y-116202500D03*
%TO.P,U1,7,IRQ*%
%TO.N,unconnected-(U1-IRQ-Pad7)*%
X131395000Y-116202500D03*
D14*
%TO.P,U1,8,3.3V*%
%TO.N,Net-(D1-A)*%
X132885000Y-116572500D03*
D13*
%TO.P,U1,9,D0*%
%TO.N,unconnected-(U1-D0-Pad9)*%
X134395000Y-116202500D03*
%TO.P,U1,10,D1*%
%TO.N,unconnected-(U1-D1-Pad10)*%
X135895000Y-116202500D03*
%TO.P,U1,11,D2*%
%TO.N,unconnected-(U1-D2-Pad11)*%
X137395000Y-116202500D03*
%TO.P,U1,12,D3*%
%TO.N,unconnected-(U1-D3-Pad12)*%
X138895000Y-116202500D03*
%TO.P,U1,13,D4*%
%TO.N,unconnected-(U1-D4-Pad13)*%
X140395000Y-116202500D03*
%TO.P,U1,14,D5*%
%TO.N,unconnected-(U1-D5-Pad14)*%
X141895000Y-116202500D03*
%TO.P,U1,15,D6*%
%TO.N,unconnected-(U1-D6-Pad15)*%
X143395000Y-116202500D03*
%TO.P,U1,16,D7*%
%TO.N,unconnected-(U1-D7-Pad16)*%
X144895000Y-116202500D03*
D12*
%TO.P,U1,17,GND*%
%TO.N,Net-(D1-K)*%
X146395000Y-116772500D03*
%TD*%
D10*
%TO.P,D6,1,K*%
%TO.N,Net-(D1-K)*%
X133970000Y-99715000D03*
%TO.P,D6,2,A*%
%TO.N,Net-(D1-A)*%
X135720000Y-99715000D03*
%TD*%
D15*
%TO.N,Net-(D1-K)*%
X133970000Y-99715000D02*
X137870000Y-103615000D01*
X133970000Y-94715000D02*
X133970000Y-93890000D01*
X144420000Y-99715000D02*
X144420000Y-103615000D01*
X142870000Y-92515000D02*
X144420000Y-94065000D01*
X146395000Y-111065000D02*
X146395000Y-116772500D01*
X122395000Y-116772500D02*
X122395000Y-109165000D01*
X125245000Y-94715000D02*
X125245000Y-99715000D01*
X144420000Y-94065000D02*
X144420000Y-94715000D01*
X137870000Y-103615000D02*
X144420000Y-103615000D01*
X133970000Y-93890000D02*
X132595000Y-92515000D01*
X144420000Y-103615000D02*
X144420000Y-109090000D01*
X132595000Y-92515000D02*
X142870000Y-92515000D01*
X125245000Y-106315000D02*
X125245000Y-99715000D01*
X122395000Y-109165000D02*
X125245000Y-106315000D01*
X127445000Y-92515000D02*
X132595000Y-92515000D01*
X125245000Y-94715000D02*
X127445000Y-92515000D01*
X144420000Y-109090000D02*
X146395000Y-111065000D01*
X144420000Y-94715000D02*
X144420000Y-99715000D01*
%TO.N,Net-(D1-A)*%
X126995000Y-94715000D02*
X131145000Y-94715000D01*
X132885000Y-116572500D02*
X132885000Y-105605000D01*
X132885000Y-105605000D02*
X126995000Y-99715000D01*
X135720000Y-94715000D02*
X142670000Y-94715000D01*
X134745000Y-96690000D02*
X135720000Y-95715000D01*
X126995000Y-94715000D02*
X126995000Y-99715000D01*
X133120000Y-96690000D02*
X134745000Y-96690000D01*
X131145000Y-94715000D02*
X133120000Y-96690000D01*
X135720000Y-95715000D02*
X135720000Y-94715000D01*
X142670000Y-94715000D02*
X142670000Y-99715000D01*
X135720000Y-99715000D02*
X135720000Y-97665000D01*
X135720000Y-97665000D02*
X134745000Y-96690000D01*
%TD*%
M02*
