%TF.GenerationSoftware,KiCad,Pcbnew,7.0.7*%
%TF.CreationDate,2023-09-23T12:58:18+01:00*%
%TF.ProjectId,ds_lite_gba_led_cart,64735f6c-6974-4655-9f67-62615f6c6564,rev?*%
%TF.SameCoordinates,Original*%
%TF.FileFunction,Legend,Bot*%
%TF.FilePolarity,Positive*%
%FSLAX46Y46*%
G04 Gerber Fmt 4.6, Leading zero omitted, Abs format (unit mm)*
G04 Created by KiCad (PCBNEW 7.0.7) date 2023-09-23 12:58:18*
%MOMM*%
%LPD*%
G01*
G04 APERTURE LIST*
%ADD10C,0.150000*%
G04 APERTURE END LIST*
D10*
X135020820Y-84800209D02*
X135354153Y-84800209D01*
X135354153Y-85324019D02*
X135354153Y-84324019D01*
X135354153Y-84324019D02*
X134877963Y-84324019D01*
X134068439Y-85324019D02*
X134068439Y-84800209D01*
X134068439Y-84800209D02*
X134116058Y-84704971D01*
X134116058Y-84704971D02*
X134211296Y-84657352D01*
X134211296Y-84657352D02*
X134401772Y-84657352D01*
X134401772Y-84657352D02*
X134497010Y-84704971D01*
X134068439Y-85276400D02*
X134163677Y-85324019D01*
X134163677Y-85324019D02*
X134401772Y-85324019D01*
X134401772Y-85324019D02*
X134497010Y-85276400D01*
X134497010Y-85276400D02*
X134544629Y-85181161D01*
X134544629Y-85181161D02*
X134544629Y-85085923D01*
X134544629Y-85085923D02*
X134497010Y-84990685D01*
X134497010Y-84990685D02*
X134401772Y-84943066D01*
X134401772Y-84943066D02*
X134163677Y-84943066D01*
X134163677Y-84943066D02*
X134068439Y-84895447D01*
X133163677Y-85276400D02*
X133258915Y-85324019D01*
X133258915Y-85324019D02*
X133449391Y-85324019D01*
X133449391Y-85324019D02*
X133544629Y-85276400D01*
X133544629Y-85276400D02*
X133592248Y-85228780D01*
X133592248Y-85228780D02*
X133639867Y-85133542D01*
X133639867Y-85133542D02*
X133639867Y-84847828D01*
X133639867Y-84847828D02*
X133592248Y-84752590D01*
X133592248Y-84752590D02*
X133544629Y-84704971D01*
X133544629Y-84704971D02*
X133449391Y-84657352D01*
X133449391Y-84657352D02*
X133258915Y-84657352D01*
X133258915Y-84657352D02*
X133163677Y-84704971D01*
X132354153Y-85276400D02*
X132449391Y-85324019D01*
X132449391Y-85324019D02*
X132639867Y-85324019D01*
X132639867Y-85324019D02*
X132735105Y-85276400D01*
X132735105Y-85276400D02*
X132782724Y-85181161D01*
X132782724Y-85181161D02*
X132782724Y-84800209D01*
X132782724Y-84800209D02*
X132735105Y-84704971D01*
X132735105Y-84704971D02*
X132639867Y-84657352D01*
X132639867Y-84657352D02*
X132449391Y-84657352D01*
X132449391Y-84657352D02*
X132354153Y-84704971D01*
X132354153Y-84704971D02*
X132306534Y-84800209D01*
X132306534Y-84800209D02*
X132306534Y-84895447D01*
X132306534Y-84895447D02*
X132782724Y-84990685D01*
X131735105Y-85324019D02*
X131830343Y-85276400D01*
X131830343Y-85276400D02*
X131877962Y-85181161D01*
X131877962Y-85181161D02*
X131877962Y-84324019D01*
X130973200Y-85276400D02*
X131068438Y-85324019D01*
X131068438Y-85324019D02*
X131258914Y-85324019D01*
X131258914Y-85324019D02*
X131354152Y-85276400D01*
X131354152Y-85276400D02*
X131401771Y-85181161D01*
X131401771Y-85181161D02*
X131401771Y-84800209D01*
X131401771Y-84800209D02*
X131354152Y-84704971D01*
X131354152Y-84704971D02*
X131258914Y-84657352D01*
X131258914Y-84657352D02*
X131068438Y-84657352D01*
X131068438Y-84657352D02*
X130973200Y-84704971D01*
X130973200Y-84704971D02*
X130925581Y-84800209D01*
X130925581Y-84800209D02*
X130925581Y-84895447D01*
X130925581Y-84895447D02*
X131401771Y-84990685D01*
X130544628Y-85276400D02*
X130449390Y-85324019D01*
X130449390Y-85324019D02*
X130258914Y-85324019D01*
X130258914Y-85324019D02*
X130163676Y-85276400D01*
X130163676Y-85276400D02*
X130116057Y-85181161D01*
X130116057Y-85181161D02*
X130116057Y-85133542D01*
X130116057Y-85133542D02*
X130163676Y-85038304D01*
X130163676Y-85038304D02*
X130258914Y-84990685D01*
X130258914Y-84990685D02*
X130401771Y-84990685D01*
X130401771Y-84990685D02*
X130497009Y-84943066D01*
X130497009Y-84943066D02*
X130544628Y-84847828D01*
X130544628Y-84847828D02*
X130544628Y-84800209D01*
X130544628Y-84800209D02*
X130497009Y-84704971D01*
X130497009Y-84704971D02*
X130401771Y-84657352D01*
X130401771Y-84657352D02*
X130258914Y-84657352D01*
X130258914Y-84657352D02*
X130163676Y-84704971D01*
X129735104Y-85276400D02*
X129639866Y-85324019D01*
X129639866Y-85324019D02*
X129449390Y-85324019D01*
X129449390Y-85324019D02*
X129354152Y-85276400D01*
X129354152Y-85276400D02*
X129306533Y-85181161D01*
X129306533Y-85181161D02*
X129306533Y-85133542D01*
X129306533Y-85133542D02*
X129354152Y-85038304D01*
X129354152Y-85038304D02*
X129449390Y-84990685D01*
X129449390Y-84990685D02*
X129592247Y-84990685D01*
X129592247Y-84990685D02*
X129687485Y-84943066D01*
X129687485Y-84943066D02*
X129735104Y-84847828D01*
X129735104Y-84847828D02*
X129735104Y-84800209D01*
X129735104Y-84800209D02*
X129687485Y-84704971D01*
X129687485Y-84704971D02*
X129592247Y-84657352D01*
X129592247Y-84657352D02*
X129449390Y-84657352D01*
X129449390Y-84657352D02*
X129354152Y-84704971D01*
X129020818Y-84657352D02*
X128639866Y-84657352D01*
X128877961Y-84324019D02*
X128877961Y-85181161D01*
X128877961Y-85181161D02*
X128830342Y-85276400D01*
X128830342Y-85276400D02*
X128735104Y-85324019D01*
X128735104Y-85324019D02*
X128639866Y-85324019D01*
X127925580Y-85276400D02*
X128020818Y-85324019D01*
X128020818Y-85324019D02*
X128211294Y-85324019D01*
X128211294Y-85324019D02*
X128306532Y-85276400D01*
X128306532Y-85276400D02*
X128354151Y-85181161D01*
X128354151Y-85181161D02*
X128354151Y-84800209D01*
X128354151Y-84800209D02*
X128306532Y-84704971D01*
X128306532Y-84704971D02*
X128211294Y-84657352D01*
X128211294Y-84657352D02*
X128020818Y-84657352D01*
X128020818Y-84657352D02*
X127925580Y-84704971D01*
X127925580Y-84704971D02*
X127877961Y-84800209D01*
X127877961Y-84800209D02*
X127877961Y-84895447D01*
X127877961Y-84895447D02*
X128354151Y-84990685D01*
X127020818Y-85276400D02*
X127116056Y-85324019D01*
X127116056Y-85324019D02*
X127306532Y-85324019D01*
X127306532Y-85324019D02*
X127401770Y-85276400D01*
X127401770Y-85276400D02*
X127449389Y-85228780D01*
X127449389Y-85228780D02*
X127497008Y-85133542D01*
X127497008Y-85133542D02*
X127497008Y-84847828D01*
X127497008Y-84847828D02*
X127449389Y-84752590D01*
X127449389Y-84752590D02*
X127401770Y-84704971D01*
X127401770Y-84704971D02*
X127306532Y-84657352D01*
X127306532Y-84657352D02*
X127116056Y-84657352D01*
X127116056Y-84657352D02*
X127020818Y-84704971D01*
X126592246Y-85324019D02*
X126592246Y-84324019D01*
X126163675Y-85324019D02*
X126163675Y-84800209D01*
X126163675Y-84800209D02*
X126211294Y-84704971D01*
X126211294Y-84704971D02*
X126306532Y-84657352D01*
X126306532Y-84657352D02*
X126449389Y-84657352D01*
X126449389Y-84657352D02*
X126544627Y-84704971D01*
X126544627Y-84704971D02*
X126592246Y-84752590D01*
X124973198Y-84419257D02*
X124925579Y-84371638D01*
X124925579Y-84371638D02*
X124830341Y-84324019D01*
X124830341Y-84324019D02*
X124592246Y-84324019D01*
X124592246Y-84324019D02*
X124497008Y-84371638D01*
X124497008Y-84371638D02*
X124449389Y-84419257D01*
X124449389Y-84419257D02*
X124401770Y-84514495D01*
X124401770Y-84514495D02*
X124401770Y-84609733D01*
X124401770Y-84609733D02*
X124449389Y-84752590D01*
X124449389Y-84752590D02*
X125020817Y-85324019D01*
X125020817Y-85324019D02*
X124401770Y-85324019D01*
X123782722Y-84324019D02*
X123687484Y-84324019D01*
X123687484Y-84324019D02*
X123592246Y-84371638D01*
X123592246Y-84371638D02*
X123544627Y-84419257D01*
X123544627Y-84419257D02*
X123497008Y-84514495D01*
X123497008Y-84514495D02*
X123449389Y-84704971D01*
X123449389Y-84704971D02*
X123449389Y-84943066D01*
X123449389Y-84943066D02*
X123497008Y-85133542D01*
X123497008Y-85133542D02*
X123544627Y-85228780D01*
X123544627Y-85228780D02*
X123592246Y-85276400D01*
X123592246Y-85276400D02*
X123687484Y-85324019D01*
X123687484Y-85324019D02*
X123782722Y-85324019D01*
X123782722Y-85324019D02*
X123877960Y-85276400D01*
X123877960Y-85276400D02*
X123925579Y-85228780D01*
X123925579Y-85228780D02*
X123973198Y-85133542D01*
X123973198Y-85133542D02*
X124020817Y-84943066D01*
X124020817Y-84943066D02*
X124020817Y-84704971D01*
X124020817Y-84704971D02*
X123973198Y-84514495D01*
X123973198Y-84514495D02*
X123925579Y-84419257D01*
X123925579Y-84419257D02*
X123877960Y-84371638D01*
X123877960Y-84371638D02*
X123782722Y-84324019D01*
X123068436Y-84419257D02*
X123020817Y-84371638D01*
X123020817Y-84371638D02*
X122925579Y-84324019D01*
X122925579Y-84324019D02*
X122687484Y-84324019D01*
X122687484Y-84324019D02*
X122592246Y-84371638D01*
X122592246Y-84371638D02*
X122544627Y-84419257D01*
X122544627Y-84419257D02*
X122497008Y-84514495D01*
X122497008Y-84514495D02*
X122497008Y-84609733D01*
X122497008Y-84609733D02*
X122544627Y-84752590D01*
X122544627Y-84752590D02*
X123116055Y-85324019D01*
X123116055Y-85324019D02*
X122497008Y-85324019D01*
X122163674Y-84324019D02*
X121544627Y-84324019D01*
X121544627Y-84324019D02*
X121877960Y-84704971D01*
X121877960Y-84704971D02*
X121735103Y-84704971D01*
X121735103Y-84704971D02*
X121639865Y-84752590D01*
X121639865Y-84752590D02*
X121592246Y-84800209D01*
X121592246Y-84800209D02*
X121544627Y-84895447D01*
X121544627Y-84895447D02*
X121544627Y-85133542D01*
X121544627Y-85133542D02*
X121592246Y-85228780D01*
X121592246Y-85228780D02*
X121639865Y-85276400D01*
X121639865Y-85276400D02*
X121735103Y-85324019D01*
X121735103Y-85324019D02*
X122020817Y-85324019D01*
X122020817Y-85324019D02*
X122116055Y-85276400D01*
X122116055Y-85276400D02*
X122163674Y-85228780D01*
X134497009Y-86934019D02*
X134497009Y-85934019D01*
X134497009Y-85934019D02*
X134258914Y-85934019D01*
X134258914Y-85934019D02*
X134116057Y-85981638D01*
X134116057Y-85981638D02*
X134020819Y-86076876D01*
X134020819Y-86076876D02*
X133973200Y-86172114D01*
X133973200Y-86172114D02*
X133925581Y-86362590D01*
X133925581Y-86362590D02*
X133925581Y-86505447D01*
X133925581Y-86505447D02*
X133973200Y-86695923D01*
X133973200Y-86695923D02*
X134020819Y-86791161D01*
X134020819Y-86791161D02*
X134116057Y-86886400D01*
X134116057Y-86886400D02*
X134258914Y-86934019D01*
X134258914Y-86934019D02*
X134497009Y-86934019D01*
X133544628Y-86886400D02*
X133401771Y-86934019D01*
X133401771Y-86934019D02*
X133163676Y-86934019D01*
X133163676Y-86934019D02*
X133068438Y-86886400D01*
X133068438Y-86886400D02*
X133020819Y-86838780D01*
X133020819Y-86838780D02*
X132973200Y-86743542D01*
X132973200Y-86743542D02*
X132973200Y-86648304D01*
X132973200Y-86648304D02*
X133020819Y-86553066D01*
X133020819Y-86553066D02*
X133068438Y-86505447D01*
X133068438Y-86505447D02*
X133163676Y-86457828D01*
X133163676Y-86457828D02*
X133354152Y-86410209D01*
X133354152Y-86410209D02*
X133449390Y-86362590D01*
X133449390Y-86362590D02*
X133497009Y-86314971D01*
X133497009Y-86314971D02*
X133544628Y-86219733D01*
X133544628Y-86219733D02*
X133544628Y-86124495D01*
X133544628Y-86124495D02*
X133497009Y-86029257D01*
X133497009Y-86029257D02*
X133449390Y-85981638D01*
X133449390Y-85981638D02*
X133354152Y-85934019D01*
X133354152Y-85934019D02*
X133116057Y-85934019D01*
X133116057Y-85934019D02*
X132973200Y-85981638D01*
X131306533Y-86934019D02*
X131782723Y-86934019D01*
X131782723Y-86934019D02*
X131782723Y-85934019D01*
X130973199Y-86934019D02*
X130973199Y-86267352D01*
X130973199Y-85934019D02*
X131020818Y-85981638D01*
X131020818Y-85981638D02*
X130973199Y-86029257D01*
X130973199Y-86029257D02*
X130925580Y-85981638D01*
X130925580Y-85981638D02*
X130973199Y-85934019D01*
X130973199Y-85934019D02*
X130973199Y-86029257D01*
X130639866Y-86267352D02*
X130258914Y-86267352D01*
X130497009Y-85934019D02*
X130497009Y-86791161D01*
X130497009Y-86791161D02*
X130449390Y-86886400D01*
X130449390Y-86886400D02*
X130354152Y-86934019D01*
X130354152Y-86934019D02*
X130258914Y-86934019D01*
X129544628Y-86886400D02*
X129639866Y-86934019D01*
X129639866Y-86934019D02*
X129830342Y-86934019D01*
X129830342Y-86934019D02*
X129925580Y-86886400D01*
X129925580Y-86886400D02*
X129973199Y-86791161D01*
X129973199Y-86791161D02*
X129973199Y-86410209D01*
X129973199Y-86410209D02*
X129925580Y-86314971D01*
X129925580Y-86314971D02*
X129830342Y-86267352D01*
X129830342Y-86267352D02*
X129639866Y-86267352D01*
X129639866Y-86267352D02*
X129544628Y-86314971D01*
X129544628Y-86314971D02*
X129497009Y-86410209D01*
X129497009Y-86410209D02*
X129497009Y-86505447D01*
X129497009Y-86505447D02*
X129973199Y-86600685D01*
X127782723Y-85981638D02*
X127877961Y-85934019D01*
X127877961Y-85934019D02*
X128020818Y-85934019D01*
X128020818Y-85934019D02*
X128163675Y-85981638D01*
X128163675Y-85981638D02*
X128258913Y-86076876D01*
X128258913Y-86076876D02*
X128306532Y-86172114D01*
X128306532Y-86172114D02*
X128354151Y-86362590D01*
X128354151Y-86362590D02*
X128354151Y-86505447D01*
X128354151Y-86505447D02*
X128306532Y-86695923D01*
X128306532Y-86695923D02*
X128258913Y-86791161D01*
X128258913Y-86791161D02*
X128163675Y-86886400D01*
X128163675Y-86886400D02*
X128020818Y-86934019D01*
X128020818Y-86934019D02*
X127925580Y-86934019D01*
X127925580Y-86934019D02*
X127782723Y-86886400D01*
X127782723Y-86886400D02*
X127735104Y-86838780D01*
X127735104Y-86838780D02*
X127735104Y-86505447D01*
X127735104Y-86505447D02*
X127925580Y-86505447D01*
X126973199Y-86410209D02*
X126830342Y-86457828D01*
X126830342Y-86457828D02*
X126782723Y-86505447D01*
X126782723Y-86505447D02*
X126735104Y-86600685D01*
X126735104Y-86600685D02*
X126735104Y-86743542D01*
X126735104Y-86743542D02*
X126782723Y-86838780D01*
X126782723Y-86838780D02*
X126830342Y-86886400D01*
X126830342Y-86886400D02*
X126925580Y-86934019D01*
X126925580Y-86934019D02*
X127306532Y-86934019D01*
X127306532Y-86934019D02*
X127306532Y-85934019D01*
X127306532Y-85934019D02*
X126973199Y-85934019D01*
X126973199Y-85934019D02*
X126877961Y-85981638D01*
X126877961Y-85981638D02*
X126830342Y-86029257D01*
X126830342Y-86029257D02*
X126782723Y-86124495D01*
X126782723Y-86124495D02*
X126782723Y-86219733D01*
X126782723Y-86219733D02*
X126830342Y-86314971D01*
X126830342Y-86314971D02*
X126877961Y-86362590D01*
X126877961Y-86362590D02*
X126973199Y-86410209D01*
X126973199Y-86410209D02*
X127306532Y-86410209D01*
X126354151Y-86648304D02*
X125877961Y-86648304D01*
X126449389Y-86934019D02*
X126116056Y-85934019D01*
X126116056Y-85934019D02*
X125782723Y-86934019D01*
X124211294Y-86934019D02*
X124687484Y-86934019D01*
X124687484Y-86934019D02*
X124687484Y-85934019D01*
X123877960Y-86410209D02*
X123544627Y-86410209D01*
X123401770Y-86934019D02*
X123877960Y-86934019D01*
X123877960Y-86934019D02*
X123877960Y-85934019D01*
X123877960Y-85934019D02*
X123401770Y-85934019D01*
X122973198Y-86934019D02*
X122973198Y-85934019D01*
X122973198Y-85934019D02*
X122735103Y-85934019D01*
X122735103Y-85934019D02*
X122592246Y-85981638D01*
X122592246Y-85981638D02*
X122497008Y-86076876D01*
X122497008Y-86076876D02*
X122449389Y-86172114D01*
X122449389Y-86172114D02*
X122401770Y-86362590D01*
X122401770Y-86362590D02*
X122401770Y-86505447D01*
X122401770Y-86505447D02*
X122449389Y-86695923D01*
X122449389Y-86695923D02*
X122497008Y-86791161D01*
X122497008Y-86791161D02*
X122592246Y-86886400D01*
X122592246Y-86886400D02*
X122735103Y-86934019D01*
X122735103Y-86934019D02*
X122973198Y-86934019D01*
M02*
